<?xml version="1.0" encoding="UTF-8" standalone="no"?>
<!-- Created with Inkscape (http://www.inkscape.org/) -->

<svg
   xmlns:dc="http://purl.org/dc/elements/1.1/"
   xmlns:cc="http://creativecommons.org/ns#"
   xmlns:rdf="http://www.w3.org/1999/02/22-rdf-syntax-ns#"
   xmlns:svg="http://www.w3.org/2000/svg"
   xmlns="http://www.w3.org/2000/svg"
   xmlns:sodipodi="http://sodipodi.sourceforge.net/DTD/sodipodi-0.dtd"
   xmlns:inkscape="http://www.inkscape.org/namespaces/inkscape"
   width="999.99994"
   height="728.71155"
   id="svg4858"
   version="1.1"
   inkscape:version="0.48.5 r10040"
   sodipodi:docname="AAA.svg">
  <defs
     id="defs4860">
    <clipPath
       clipPathUnits="userSpaceOnUse"
       id="clipPath4455">
      <path
         inkscape:connector-curvature="0"
         d="m 0,0 841.89,0 0,595.275 L 0,595.275 0,0 z"
         id="path4457" />
    </clipPath>
    <clipPath
       clipPathUnits="userSpaceOnUse"
       id="clipPath4943">
      <path
         inkscape:connector-curvature="0"
         d="m 16.346,15.447 101.402,0 0,80.936 -101.402,0 0,-80.936 z"
         id="path4945" />
    </clipPath>
    <clipPath
       clipPathUnits="userSpaceOnUse"
       id="clipPath4951">
      <path
         inkscape:connector-curvature="0"
         d="m 26.685,89.3855 0,-56.3055 77.296,0 0,56.3055"
         id="path4953" />
    </clipPath>
  </defs>
  <sodipodi:namedview
     id="base"
     pagecolor="#ffffff"
     bordercolor="#666666"
     borderopacity="1.0"
     inkscape:pageopacity="0.0"
     inkscape:pageshadow="2"
     inkscape:zoom="0.4055506"
     inkscape:cx="920.5517"
     inkscape:cy="88.048947"
     inkscape:document-units="px"
     inkscape:current-layer="layer1"
     showgrid="false"
     fit-margin-left="0.5"
     fit-margin-bottom="0.5"
     fit-margin-top="0.5"
     fit-margin-right="0.5"
     inkscape:window-width="1073"
     inkscape:window-height="1036"
     inkscape:window-x="839"
     inkscape:window-y="-21"
     inkscape:window-maximized="0">
    <inkscape:grid
       type="xygrid"
       id="grid4866"
       empspacing="5"
       visible="true"
       enabled="true"
       snapvisiblegridlinesonly="true"
       originx="309.92334px"
       originy="-240.83991px" />
  </sodipodi:namedview>
  <metadata
     id="metadata4863">
    <rdf:RDF>
      <cc:Work
         rdf:about="">
        <dc:format>image/svg+xml</dc:format>
        <dc:type
           rdf:resource="http://purl.org/dc/dcmitype/StillImage" />
        <dc:title></dc:title>
      </cc:Work>
    </rdf:RDF>
  </metadata>
  <g
     inkscape:label="Layer 1"
     inkscape:groupmode="layer"
     id="layer1"
     transform="translate(309.92334,-82.810728)">
    <g
       id="g4939"
       transform="matrix(12.924342,0,0,-12.924342,-654.30941,1238.5595)">
      <g
         id="g4941"
         clip-path="url(#clipPath4943)">
        <g
           id="g4947">
          <g
             id="g4949"
             clip-path="url(#clipPath4951)">
            <path
               d="m 33.7801,33.2327 c -0.3437,0.9347 -1.4309,4.2532 -1.7359,5.2639 -0.0188,0.0383 -0.0379,0.0763 -0.0188,0.0956 0,-0.0193 -0.0191,-0.0765 -0.0575,-0.1718 -0.0573,-0.1717 -1.3921,-4.0626 -1.8309,-5.1687 l -0.3623,0 -2.0981,6.2556 c -0.0953,0.3056 -0.4004,0.5724 -0.7244,0.5724 l -0.2672,0 0,0.2862 2.8608,0 0,-0.2862 -0.2097,0 c -0.2098,0 -0.5342,-0.2479 -0.3816,-0.7629 l 1.3351,-4.2343 c 0.0191,-0.0758 0.0381,-0.095 0.0573,-0.1332 0.019,0.0189 0.0381,0.0762 0.0569,0.1332 0.153,0.4196 1.24,3.6623 1.3163,3.9481 0.1336,0.4387 -0.1336,1.0491 -0.6485,1.0491 l -0.0764,0 0,0.2862 2.5368,0 0,-0.2862 -0.1334,0.0191 c -0.3053,0 -0.6105,-0.2479 -0.4387,-0.8201 l 1.335,-4.1962 c 0.019,-0.0758 0.019,-0.095 0.019,-0.1332 0.0192,0.0189 0.0573,0.0762 0.0765,0.1332 0.1526,0.4196 1.2206,3.643 1.3159,3.9292 0.248,0.7055 -0.0953,1.068 -0.4388,1.068 l -0.1717,0 0,0.2862 2.2507,0 0,-0.2862 -0.229,0 c -0.2669,0 -0.6104,-0.1527 -0.8011,-0.6676 -0.3621,-1.0107 -1.6973,-4.7679 -2.2124,-6.1604 l -0.3239,-0.019 z m 9.1926,0.019 -2.9942,0 0,0.2861 0.1715,0 c 0.3815,0 0.725,0.4005 0.5151,0.9345 l -0.5151,1.2778 -2.3841,0 -0.3623,-1.1059 c -0.1715,-0.4768 -0.0951,-1.1064 0.5532,-1.1064 l 0.1144,0 0,-0.2861 -2.3839,0 0.019,0.3053 c 0.6483,0 0.9155,0.3813 1.2779,1.3923 l 1.9642,5.4355 0.5534,0 2.3457,-5.7789 c 0.1718,-0.4198 0.458,-1.0681 0.9535,-1.0681 l 0.1717,0 0,-0.2861 z m -2.9373,2.8421 -1.144,2.975 -1.03,-2.975 2.174,0 z m 8.4877,2.2122 -0.3243,0 c -0.0763,1.0872 -0.8394,1.6974 -1.4879,1.6974 l -0.7056,0 -0.0189,-5.4927 c 0,-0.5152 0.2671,-0.9729 0.8962,-0.9729 l 0.1528,0 0,-0.2861 -3.2425,0 0,0.2861 0.1144,0 c 0.6104,0 0.9158,0.4577 0.9158,0.9536 l 0,5.512 -0.6679,0 c -0.6484,0 -1.4112,-0.6102 -1.4876,-1.6974 l -0.3242,0 0.0571,2.0599 6.0652,0 0.0574,-2.0599 z m 0.6673,1.7737 0.1336,0 c 0.4766,0 0.8776,-0.3433 0.8776,-0.8962 l 0,-4.7303 c 0,-0.4766 -0.3816,-0.8962 -0.8965,-0.8962 l -0.1147,0 0,-0.3053 5.9701,0 0,2.155 -0.3055,0 C 54.817,34.5107 54.1303,33.557 52.9477,33.557 l -0.3432,0 c -0.8012,0 -1.2206,0.4961 -1.2206,1.068 l 0,2.0599 0.9153,0 c 0.6867,0 1.2018,-0.4768 1.2018,-1.1635 l 0,-0.1334 0.3244,0 0,2.918 -0.3244,0 -0.019,-0.4196 c 0,-0.5148 -0.4389,-0.8394 -0.8964,-0.8394 l -1.2017,0 0,2.9564 1.6976,0 c 0.9534,0 1.621,-0.7629 1.621,-1.7163 l 0.305,0 -0.0569,2.0788 -5.7602,0 0,-0.2862 z m 12.3975,-1.4685 c 0,-1.087 -0.992,-1.8313 -1.8884,-1.8313 1.0109,0 1.4877,-1.1059 1.9647,-2.1931 0.2666,-0.6102 0.61,-1.1061 1.0298,-1.1061 l 0.1336,0 0.0759,-0.229 -1.6211,-0.019 c -0.1335,0 -0.6483,0.8011 -1.087,1.7548 -0.6485,1.4112 -0.9155,1.6974 -1.5258,1.6974 l -0.4007,0 -0.0189,-2.1742 c 0,-0.5152 0.2669,-0.9729 0.8966,-0.9729 l 0.1522,0 0,-0.2861 -3.204,0 0,0.2861 0.1145,0.0192 c 0.6104,0 0.9153,0.4576 0.9153,0.9537 l 0,4.6915 c 0,0.5342 -0.2289,0.8775 -0.858,0.8775 l -0.1527,0 0,0.2862 3.5093,0 c 1.1063,0 1.9647,-0.5722 1.9647,-1.7358 l 0,-0.0189 z m -2.5751,-1.5451 c 0.8203,0 1.4305,0.5341 1.4305,1.5068 0,0.9344 -0.6865,1.4684 -1.5639,1.4684 l -0.6105,0 0,-2.9752 0.7439,0 z m 4.5583,-3.8334 -0.2671,0 0.0191,2.2316 0.2671,0 c 0.2099,-1.0111 1.0872,-2.0027 2.2889,-2.0027 1.5829,0 2.0218,2.0218 0.3051,2.7274 -0.7819,0.3053 -1.1824,0.4959 -1.5068,0.6293 -2.136,0.9343 -1.278,3.7191 1.0302,3.7191 1.1251,0 1.6781,-0.8775 1.9643,-0.2099 l 0.229,0 0.0378,-2.0404 -0.305,0 c -0.2671,1.1444 -0.9727,1.8496 -1.9454,1.8496 -1.3732,0 -2.1933,-1.5827 -0.3433,-2.3265 0.801,-0.3243 1.2399,-0.5342 1.7165,-0.7441 2.0409,-0.8962 1.602,-3.967 -1.2018,-3.9861 -0.4961,0 -0.7436,0.0574 -1.1823,0.2479 -0.6293,0.2673 -1.0299,0.3436 -1.1063,-0.0952 z m 11.3672,5.0733 -0.3242,0 c -0.0759,1.0872 -0.8389,1.6974 -1.4875,1.6974 l -0.7058,0 0,-5.4927 c 0,-0.5152 0.2673,-0.9729 0.8775,-0.9729 l 0.1525,0 0,-0.2861 -3.2423,0 0,0.2861 0.1144,0 c 0.6102,0 0.9153,0.4577 0.9153,0.9536 l 0,5.512 -0.6672,0 c -0.6486,0 -1.4114,-0.6102 -1.4877,-1.6974 l -0.3244,0 0.0763,2.0599 6.0461,0 0.057,-2.0599 z m 3.7957,-5.2069 c -1.9838,0.0954 -3.4524,1.8313 -3.3568,3.7573 0.1143,2.4414 1.9454,3.7001 3.4902,3.643 2.098,-0.0572 3.4713,-1.9645 3.3566,-3.8529 -0.1523,-2.422 -1.926,-3.6048 -3.49,-3.5283 l 0,-0.0191 z m 2.2314,3.4709 c 0.1143,2.3271 -0.9729,3.5097 -2.1171,3.5667 -1.1634,0.0384 -2.1553,-0.9914 -2.2128,-3.2995 -0.0376,-1.926 0.7632,-3.3374 2.1746,-3.3756 1.3164,-0.038 2.0598,1.3923 2.1553,3.1277 l 0,-0.0193 z m 7.4,-3.3755 0.3624,0 0,5.7982 c 0,0.6103 0.3436,1.0299 0.9154,1.0299 l 0.0956,0 0,0.286 -2.4413,0 0,-0.286 0.1143,0 c 0.3818,0 0.8966,-0.4007 0.8966,-1.0299 l 0,-3.9289 -3.8718,5.2448 -2.0027,0 0,-0.286 0.1146,0 c 0.5339,0 0.8963,-0.4196 0.8963,-0.8773 l 0,-4.6921 c 0,-0.4959 -0.3051,-0.9534 -0.8963,-0.9534 l -0.1335,0 0,-0.3053 2.5171,0 0,0.3053 -0.133,-0.0191 c -0.6295,0 -0.8966,0.4576 -0.8966,0.9725 l 0,4.6727 4.4629,-5.9314 z m 1.9838,6.8852 0.1526,0 c 0.4767,0 0.8774,-0.3433 0.8774,-0.8962 l 0,-4.7303 c 0,-0.4766 -0.3816,-0.8962 -0.8968,-0.8962 l -0.1332,0 0,-0.3053 5.9882,0 0,2.155 -0.3051,0 C 95.9945,34.5107 95.308,33.557 94.1254,33.557 l -0.3436,0 c -0.8006,0 -1.2204,0.4961 -1.2204,1.068 l 0,2.0599 0.8964,0 c 0.6867,0 1.2017,-0.4768 1.2017,-1.1635 l 0,-0.1334 0.3432,0 0,2.918 -0.3432,0 0,-0.4196 c 0,-0.5148 -0.439,-0.8394 -0.8964,-0.8394 l -1.2017,0 0,2.9564 1.6978,0 c 0.9536,0 1.621,-0.7629 1.621,-1.7163 l 0.305,0 -0.0575,2.0788 -5.7785,0 0,-0.2862 z m 7.114,-1.9834 0,0.2476 c 0.3241,0.2862 0.4579,0.6297 0.4957,1.0111 -0.2288,-0.1908 -0.6293,-0.1908 -0.7818,0.1523 -0.4008,0.9156 0.7627,1.3926 1.0871,0.7059 0.3816,-0.7817 -0.1336,-1.6783 -0.801,-2.1169 z M 100.4,33.3279 c -0.6291,0.2673 -1.0299,0.3436 -1.1059,-0.0952 l -0.2862,0 0.038,2.2316 0.2482,0 c 0.2099,-1.0111 1.0872,-2.0027 2.3078,-2.0027 1.5831,0 2.0218,2.0218 0.2858,2.7274 -0.7817,0.3053 -1.1824,0.4959 -1.5064,0.6293 -2.1362,0.9343 -1.2782,3.7191 1.0296,3.7191 1.1254,0 1.6785,-0.8775 1.984,-0.2099 l 0.2288,0 0.0189,-2.0404 -0.2859,0 c -0.2673,1.1444 -0.9729,1.8496 -1.9645,1.8496 -1.3732,0 -2.1935,-1.5827 -0.3434,-2.3265 0.8011,-0.3243 1.2396,-0.5342 1.7164,-0.7441 2.0407,-0.8962 1.602,-3.967 -1.2015,-3.9861 -0.4959,0 -0.7439,0.0574 -1.1824,0.2479 l 0.0187,0"
               style="fill:#231f20;fill-opacity:1;fill-rule:nonzero;stroke:none"
               id="path4955"
               inkscape:connector-curvature="0" />
            <path
               d="m 78.2035,47.4798 -1.8151,0 c -1.9573,5.5701 -8.5655,24.9849 -10.4411,30.899 -0.0716,0.2143 -0.1328,0.3979 -0.1429,0.5101 0,-0.0815 -0.0614,-0.3773 -0.2554,-0.8872 C 65.2027,76.9822 57.2593,54.1508 54.6644,47.482 l -1.8355,0 -12.6191,36.7704 c -0.5711,1.7542 -2.3333,3.4242 -4.2015,3.4527 l -1.5865,0 0,1.6804 16.8541,0 0.0021,-1.6739 -1.3401,-0.0058 c -1.2033,0 -3.2619,-1.6363 -2.1821,-4.5546 L 55.75,58.3623 c 0.1323,-0.4284 0.2003,-0.5611 0.2413,-0.8363 0.1016,0.1633 0.2479,0.5269 0.3705,0.8566 0.8975,2.4577 7.2875,21.4241 7.7497,22.974 1.1012,3.2631 -0.7751,6.3162 -3.181,6.3485 l -1.0204,0 0,1.6804 14.7753,0 0,-1.6813 -1.3406,0.0016 c -1.6872,0 -3.0334,-1.7811 -1.8506,-5.2071 L 79.24,58.3623 c 0.1328,-0.4284 0.2003,-0.5611 0.2413,-0.8363 0.1021,0.1633 0.2479,0.5269 0.3705,0.8566 0.9016,2.4982 7.1552,21.3057 7.6788,22.9353 1.4411,4.1785 -0.5368,6.3742 -2.495,6.3879 l -1.0147,-7e-4 0,1.6804 12.9861,0 0,-1.6797 -1.4475,0 c -1.5507,0 -3.3853,-1.0265 -4.507,-4.004 -2.142,-5.9756 -9.8505,-27.9195 -12.849,-36.222"
               style="fill:#231f20;fill-opacity:1;fill-rule:nonzero;stroke:none"
               id="path4957"
               inkscape:connector-curvature="0" />
          </g>
        </g>
      </g>
    </g>
  </g>
</svg>
